<svg id="icon_extended_warranty" xmlns="http://www.w3.org/2000/svg" width="70" height="70" viewBox="0 0 70 70">
  <defs>
    <style>
      .cls-1 {
        fill: #fff;
        fill-rule: evenodd;
      }
    </style>
  </defs>
  <g id="_1600-1920" data-name="1600-1920">
    <g id="Home-1-1600">
      <g id="Group-11">
        <g id="Group-9">
          <g id="Group-6">
            <path id="Fill-1" class="cls-1" d="M35.113,22.432a1.256,1.256,0,0,0-1.255,1.257v12.43a1.255,1.255,0,0,0,.356.876l6.512,6.7a1.256,1.256,0,1,0,1.8-1.753l-6.157-6.337V23.689a1.257,1.257,0,0,0-1.255-1.257"/>
            <g id="Group-5">
              <path id="Fill-3" class="cls-1" d="M46.915,24.35a1.255,1.255,0,0,0,.919,1.52l7.756,1.912,0.007,0c0.009,0,.018,0,0.027,0a1.248,1.248,0,0,0,.644-0.03,0.558,0.558,0,0,0,.064-0.02c0.018-.008.039-0.01,0.057-0.018a1.19,1.19,0,0,0,.258-0.152c0.016-.012.029-0.025,0.045-0.038a1.232,1.232,0,0,0,.244-0.264l0.011-.014A1.267,1.267,0,0,0,57.1,26.9c0-.012.012-0.022,0.014-0.034l2-8.127a1.256,1.256,0,1,0-2.439-.6l-1.2,4.876a23.49,23.49,0,1,0,1.6,21.4,1.256,1.256,0,1,0-2.313-.979,20.989,20.989,0,1,1-1.223-18.748L48.433,23.43a1.25,1.25,0,0,0-1.518.92"/>
            </g>
          </g>
        </g>
      </g>
    </g>
  </g>
</svg>
