<svg id="icon_working_hours" xmlns="http://www.w3.org/2000/svg" width="70" height="70" viewBox="0 0 70 70">
  <defs>
    <style>
      .cls-1 {
        fill: #fff;
        fill-rule: evenodd;
      }
    </style>
  </defs>
  <g id="_1600-1920" data-name="1600-1920">
    <g id="Home-1-1600">
      <g id="Group-13">
        <path id="_1_2_3" data-name="1+2+3" class="cls-1" d="M9.565,43.9V28.645L5.78,30.34V28.262L11.421,25.8h0.346V43.9h-2.2Zm18.187-9.663V36.4h-4.07v5.691h-2.2V36.4H17.372V34.237H21.48V28.979h2.2v5.258h4.07ZM30.338,43.9V42.255l5.134-6.8a14.959,14.959,0,0,0,1.615-2.58,5.164,5.164,0,0,0,.452-2.134,3.777,3.777,0,0,0-.668-2.326,2.093,2.093,0,0,0-1.757-.891,2.549,2.549,0,0,0-2.122.947,4.316,4.316,0,0,0-.748,2.728h-2.19a5.834,5.834,0,0,1,1.361-4.021,4.693,4.693,0,0,1,3.7-1.534,4.425,4.425,0,0,1,3.39,1.318,4.916,4.916,0,0,1,1.237,3.508q0,2.672-2.784,6.322l-4.009,5.246h7.46V43.9H30.338Zm22.5-9.663V36.4H48.773v5.691h-2.2V36.4H42.463V34.237H46.57V28.979h2.2v5.258h4.071Zm6.78-.458a2.623,2.623,0,0,0,2.079-.829,3.306,3.306,0,0,0,.73-2.264q0-3.167-2.45-3.167a2.211,2.211,0,0,0-1.843.854,3.53,3.53,0,0,0-.668,2.239H55.293a5.009,5.009,0,0,1,1.318-3.569,4.849,4.849,0,0,1,6.749-.074,5.292,5.292,0,0,1,1.25,3.767,4.454,4.454,0,0,1-.65,2.332,4,4,0,0,1-1.689,1.59q2.549,0.94,2.549,4.219a5.384,5.384,0,0,1-1.342,3.842,5.054,5.054,0,0,1-6.965.074,5,5,0,0,1-1.318-3.644h2.19a3.5,3.5,0,0,0,.693,2.283,2.314,2.314,0,0,0,1.893.847,2.456,2.456,0,0,0,1.949-.829,3.755,3.755,0,0,0,.724-2.524q0-3.279-3.105-3.279H58.225V33.78h1.4Z"/>
      </g>
    </g>
  </g>
</svg>
