<?xml version="1.0" encoding="utf-8"?>
<!-- Generator: Adobe Illustrator 19.0.0, SVG Export Plug-In . SVG Version: 6.00 Build 0)  -->
<svg version="1.1" id="Layer_1" xmlns="http://www.w3.org/2000/svg" xmlns:xlink="http://www.w3.org/1999/xlink" x="0px" y="0px"
	width="20" height="20" viewBox="0 0 20 20" style="enable-background:new 0 0 20 20;" xml:space="preserve">
<style type="text/css">
	.st0{fill:url(#XMLID_10_);}
	.st1{fill:url(#XMLID_11_);}
	.st2{fill:#FFFFFF;}
</style>
<radialGradient id="XMLID_10_" cx="172.5841" cy="-531.5917" r="10.0008" gradientTransform="matrix(0 -1.982 -1.8439 0 -974.8908 363.5987)" gradientUnits="userSpaceOnUse">
	<stop  offset="0" style="stop-color:#FFDD55"/>
	<stop  offset="0.1" style="stop-color:#FFDD55"/>
	<stop  offset="0.5" style="stop-color:#FF543E"/>
	<stop  offset="1" style="stop-color:#C837AB"/>
</radialGradient>
<path id="XMLID_7_" class="st0" d="M10,0C5.8,0,4.6,0,4.4,0C3.5,0.1,3,0.2,2.4,0.5C1.9,0.7,1.6,1,1.2,1.4C0.6,2,0.2,2.8,0.1,3.8
	C0,4.3,0,4.4,0,6.7C0,7.5,0,8.6,0,10c0,4.2,0,5.4,0,5.6c0.1,0.8,0.2,1.4,0.5,1.9C1,18.7,2,19.5,3.2,19.8C3.6,19.9,4.1,20,4.7,20
	c0.2,0,2.8,0,5.3,0s5.1,0,5.3,0c0.7,0,1.1-0.1,1.5-0.2c1.2-0.3,2.2-1.1,2.7-2.2c0.3-0.6,0.4-1.1,0.5-1.9c0-0.2,0-2.9,0-5.7
	c0-2.7,0-5.5,0-5.7c-0.1-0.8-0.2-1.3-0.5-1.9C19.3,2,19,1.6,18.6,1.2c-0.7-0.6-1.5-1-2.4-1.2C15.7,0,15.6,0,13.3,0H10z"/>
<radialGradient id="XMLID_11_" cx="144.7679" cy="-412.8372" r="10.0008" gradientTransform="matrix(0.1739 0.8687 3.5818 -0.7172 1450.1656 -420.4006)" gradientUnits="userSpaceOnUse">
	<stop  offset="0" style="stop-color:#3771C8"/>
	<stop  offset="0.128" style="stop-color:#3771C8"/>
	<stop  offset="1" style="stop-color:#6600FF;stop-opacity:0"/>
</radialGradient>
<path id="XMLID_6_" class="st1" d="M10,0C5.8,0,4.6,0,4.4,0C3.5,0.1,3,0.2,2.4,0.5C1.9,0.7,1.6,1,1.2,1.4C0.6,2,0.2,2.8,0.1,3.8
	C0,4.3,0,4.4,0,6.7C0,7.5,0,8.6,0,10c0,4.2,0,5.4,0,5.6c0.1,0.8,0.2,1.4,0.5,1.9C1,18.7,2,19.5,3.2,19.8C3.6,19.9,4.1,20,4.7,20
	c0.2,0,2.8,0,5.3,0s5.1,0,5.3,0c0.7,0,1.1-0.1,1.5-0.2c1.2-0.3,2.2-1.1,2.7-2.2c0.3-0.6,0.4-1.1,0.5-1.9c0-0.2,0-2.9,0-5.7
	c0-2.7,0-5.5,0-5.7c-0.1-0.8-0.2-1.3-0.5-1.9C19.3,2,19,1.6,18.6,1.2c-0.7-0.6-1.5-1-2.4-1.2C15.7,0,15.6,0,13.3,0H10z"/>
<path id="XMLID_9_" class="st2" d="M10,2.6c-2,0-2.3,0-3,0C6.2,2.7,5.6,2.8,5.2,3C4.7,3.2,4.3,3.4,3.9,3.9C3.4,4.3,3.2,4.7,3,5.2
	C2.8,5.6,2.7,6.2,2.7,7c0,0.8,0,1,0,3s0,2.3,0,3c0,0.8,0.2,1.3,0.3,1.8c0.2,0.5,0.4,0.9,0.9,1.3c0.4,0.4,0.8,0.7,1.3,0.9
	c0.5,0.2,1,0.3,1.8,0.3c0.8,0,1,0,3,0c2,0,2.3,0,3,0c0.8,0,1.3-0.2,1.8-0.3c0.5-0.2,0.9-0.4,1.3-0.9c0.4-0.4,0.7-0.8,0.9-1.3
	c0.2-0.5,0.3-1,0.3-1.8c0-0.8,0-1,0-3s0-2.3,0-3c0-0.8-0.2-1.3-0.3-1.8c-0.2-0.5-0.4-0.9-0.9-1.3c-0.4-0.4-0.8-0.7-1.3-0.9
	c-0.5-0.2-1-0.3-1.8-0.3C12.3,2.6,12,2.6,10,2.6L10,2.6z M9.3,3.9c0.2,0,0.4,0,0.7,0c2,0,2.2,0,3,0c0.7,0,1.1,0.2,1.4,0.3
	c0.3,0.1,0.6,0.3,0.8,0.6c0.3,0.3,0.4,0.5,0.6,0.8C15.9,5.9,16,6.3,16,7c0,0.8,0,1,0,3s0,2.2,0,3c0,0.7-0.2,1.1-0.3,1.4
	c-0.1,0.3-0.3,0.6-0.6,0.8c-0.3,0.3-0.5,0.4-0.8,0.6C14.1,15.9,13.7,16,13,16c-0.8,0-1,0-3,0c-2,0-2.2,0-3,0c-0.7,0-1.1-0.2-1.4-0.3
	c-0.3-0.1-0.6-0.3-0.8-0.6c-0.3-0.3-0.4-0.5-0.6-0.8C4.1,14.1,4,13.7,4,13c0-0.8,0-1,0-3s0-2.2,0-3c0-0.7,0.2-1.1,0.3-1.4
	c0.1-0.3,0.3-0.6,0.6-0.8c0.3-0.3,0.5-0.4,0.8-0.6C5.9,4.1,6.3,4,7,4C7.7,4,8,3.9,9.3,3.9L9.3,3.9z M13.9,5.2
	c-0.5,0-0.9,0.4-0.9,0.9c0,0.5,0.4,0.9,0.9,0.9c0.5,0,0.9-0.4,0.9-0.9S14.4,5.2,13.9,5.2L13.9,5.2z M10,6.2c-2.1,0-3.8,1.7-3.8,3.8
	s1.7,3.8,3.8,3.8c2.1,0,3.8-1.7,3.8-3.8S12.1,6.2,10,6.2L10,6.2z M10,7.5c1.4,0,2.5,1.1,2.5,2.5c0,1.4-1.1,2.5-2.5,2.5
	c-1.4,0-2.5-1.1-2.5-2.5C7.5,8.6,8.6,7.5,10,7.5z"/>
</svg>
