<?xml version="1.0" encoding="UTF-8"?>
<svg width="101px" height="22px" viewBox="0 0 101 22" version="1.1" xmlns="http://www.w3.org/2000/svg" xmlns:xlink="http://www.w3.org/1999/xlink">
    <!-- Generator: Sketch 52.2 (67145) - http://www.bohemiancoding.com/sketch -->
    <title>Group 11</title>
    <desc>Created with Sketch.</desc>
    <defs>
        <polygon id="path-1" points="0 0.0341891892 17.1101672 0.0341891892 17.1101672 22 0 22"></polygon>
        <polygon id="path-3" points="0.224587867 0.0341891892 17.728326 0.0341891892 17.728326 22 0.224587867 22"></polygon>
    </defs>
    <g id="1600-1920" stroke="none" stroke-width="1" fill="none" fill-rule="evenodd">
        <g id="Home-1-1600" transform="translate(-262.000000, -3049.000000)">
            <g id="Group-11" transform="translate(262.000000, 3049.000000)">
                <g id="Group-3">
                    <mask id="mask-2" fill="white">
                        <use xlink:href="#path-1"></use>
                    </mask>
                    <g id="Clip-2"></g>
                    <path d="M13.0713124,11.0170351 C13.0713124,7.51398108 14.6507256,4.39325135 17.1101672,2.38233243 C15.3114626,0.9119 13.0415391,0.0339810811 10.5746542,0.0339810811 C4.73423186,0.0339810811 0,4.95127838 0,11.0170351 C0,17.0827919 4.73423186,22.0000892 10.5746542,22.0000892 C13.0415391,22.0000892 15.3114626,21.1221703 17.1101672,19.6517378 C14.6507256,17.6408189 13.0713124,14.5200892 13.0713124,11.0170351" id="Fill-1" fill="#D32316" mask="url(#mask-2)"></path>
                </g>
                <g id="Group-6" transform="translate(17.176871, 0.000000)">
                    <mask id="mask-4" fill="white">
                        <use xlink:href="#path-3"></use>
                    </mask>
                    <g id="Clip-5"></g>
                    <path d="M17.728326,11.0170351 C17.728326,17.0827919 12.8854397,22.0000892 6.91097484,22.0000892 C4.38718004,22.0000892 2.06545282,21.1221703 0.224587867,19.6517378 C2.74135423,17.6408189 4.35701633,14.5200892 4.35701633,11.0170351 C4.35701633,7.51398108 2.74135423,4.39325135 0.224587867,2.38233243 C2.06545282,0.9119 4.38718004,0.0339810811 6.91097484,0.0339810811 C12.8854397,0.0339810811 17.728326,4.95127838 17.728326,11.0170351" id="Fill-4" fill="#2196D4" mask="url(#mask-4)"></path>
                </g>
                <path d="M13.0544218,11.34375 C13.0544218,14.8303098 14.6662964,17.9360496 17.1759943,19.9375 L17.1768707,19.9375 C19.6874451,17.9360496 21.2993197,14.8303098 21.2993197,11.34375 C21.2993197,7.8571902 19.6871529,4.75145044 17.1762864,2.75 C14.6665886,4.75145044 13.0544218,7.8571902 13.0544218,11.34375" id="Fill-7" fill="#6C6BAF"></path>
                <path d="M53.8946097,14.8952773 L53.8946097,10.3711712 C53.8946097,8.6676624 52.8217839,7.52138427 51.0935506,7.50591375 C50.1845767,7.49044323 49.2444478,7.77679384 48.5893288,8.78850761 C48.0980617,7.9892946 47.3220732,7.50591375 46.2336699,7.50591375 C45.4747011,7.50591375 44.7292906,7.73184175 44.1474434,8.57600685 L44.1474434,7.68718157 L42.5986395,7.68718157 L42.5986395,14.8952773 L44.1630209,14.8952773 L44.1630209,10.8995042 C44.1630209,9.64785134 44.8487178,8.98349457 45.9062546,8.98349457 C46.9349443,8.98349457 47.4570779,9.66186238 47.4570779,10.8837417 L47.4570779,14.8952773 L49.0208823,14.8952773 L49.0208823,10.8995042 C49.0208823,9.64785134 49.7374457,8.98349457 50.7644046,8.98349457 C51.8236722,8.98349457 52.3305168,9.66186238 52.3305168,10.8837417 L52.3305168,14.8952773 L53.8946097,14.8952773 Z M62.626933,11.2912295 L62.626933,7.68718157 L61.0778406,7.68718157 L61.0778406,8.56228771 C60.5848427,7.91340147 59.8411629,7.50591375 58.8280507,7.50591375 C56.8306735,7.50591375 55.2662921,9.08857736 55.2662921,11.2912295 C55.2662921,13.4918383 56.8306735,15.0765452 58.8280507,15.0765452 C59.8411629,15.0765452 60.5848427,14.6693493 61.0778406,14.0201712 L61.0778406,14.8952773 L62.626933,14.8952773 L62.626933,11.2912295 Z M56.8592322,11.2912295 C56.8592322,10.024398 57.6799338,8.98349457 59.0210382,8.98349457 C60.3018521,8.98349457 61.1666899,9.97944593 61.1666899,11.2912295 C61.1666899,12.603013 60.3018521,13.597213 59.0210382,13.597213 C57.6799338,13.597213 56.8592322,12.5583528 56.8592322,11.2912295 Z M97.1448658,7.50591375 C97.6975773,7.50591375 98.2093259,7.60253154 98.6801115,7.7975185 C99.1508971,7.99104598 99.5585075,8.2584233 99.9012117,8.5984829 C100.246224,8.93854249 100.513637,9.34077607 100.708355,9.80343225 C100.902785,10.2675479 101,10.7716534 101,11.3154569 C101,11.8592603 100.902785,12.3630739 100.708355,12.8274815 C100.513637,13.2901377 100.246224,13.6938307 99.9012117,14.0338903 C99.5585075,14.3739499 99.1508971,14.6398678 98.6801115,14.8348547 C98.2093259,15.0283822 97.6975773,15.125 97.1448658,15.125 C96.5921542,15.125 96.0804056,15.0283822 95.6093315,14.8348547 C95.1388344,14.6398678 94.7343972,14.3739499 94.3934238,14.0338903 C94.0521619,13.6938307 93.7841718,13.2901377 93.589742,12.8274815 C93.3953121,12.3630739 93.2980972,11.8592603 93.2980972,11.3154569 C93.2980972,10.7716534 93.3953121,10.2675479 93.589742,9.80343225 C93.7841718,9.34077607 94.0521619,8.93854249 94.3934238,8.5984829 C94.7343972,8.2584233 95.1388344,7.99104598 95.6093315,7.7975185 C96.0804056,7.60253154 96.5921542,7.50591375 97.1448658,7.50591375 Z M97.1448658,8.99546233 C96.8258162,8.99546233 96.5307098,9.05238218 96.2560848,9.16476239 C95.9829022,9.27860208 95.7460671,9.43739386 95.5464447,9.64113771 C95.3468224,9.84488157 95.1898938,10.0897829 95.0756591,10.374674 C94.9611359,10.6595651 94.9048839,10.9736459 94.9048839,11.3154569 C94.9048839,11.6590192 94.9611359,11.9713486 95.0756591,12.2559479 C95.1898938,12.540839 95.3468224,12.7860322 95.5464447,12.989776 C95.7460671,13.193228 95.9829022,13.3520198 96.2560848,13.4661514 C96.5307098,13.5799911 96.8258162,13.6354514 97.1448658,13.6354514 C97.4636269,13.6354514 97.7604641,13.5799911 98.0336467,13.4661514 C98.3082717,13.3520198 98.5471261,13.193228 98.74646,12.989776 C98.9498325,12.7860322 99.1064725,12.540839 99.2224381,12.2559479 C99.3366728,11.9713486 99.3932133,11.6590192 99.3932133,11.3154569 C99.3932133,10.9736459 99.3366728,10.6595651 99.2224381,10.374674 C99.1064725,10.0897829 98.9498325,9.84488157 98.74646,9.64113771 C98.5471261,9.43739386 98.3082717,9.27860208 98.0336467,9.16476239 C97.7604641,9.05238218 97.4636269,8.99546233 97.1448658,8.99546233 Z M78.0307386,9.52700613 C77.5991851,9.25437466 76.7207892,8.90760144 75.8115267,8.90760144 C74.9619779,8.90760144 74.4551334,9.22518499 74.4551334,9.75322603 C74.4551334,10.2348555 74.9911136,10.3711712 75.6612331,10.4610754 L76.3913546,10.5661582 C77.9418894,10.7941295 78.8802875,11.4570267 78.8802875,12.7238582 C78.8802875,14.0960643 77.6877459,15.0765452 75.6320974,15.0765452 C74.46898,15.0765452 73.3961542,14.7744321 72.5463169,14.1410164 L73.2764385,12.9188452 C73.798572,13.3263329 74.5745606,13.6731061 75.6476749,13.6731061 C76.7052117,13.6731061 77.2717699,13.3572739 77.2717699,12.7979999 C77.2717699,12.3925555 76.8690636,12.1645842 76.0195148,12.0454904 L75.2893932,11.9401157 C73.6944338,11.7124363 72.829596,10.9891164 72.829596,9.81364863 C72.829596,8.38101989 73.9930019,7.50591375 75.7962378,7.50591375 C76.9287772,7.50591375 77.9574669,7.7630747 78.7011466,8.26017468 L78.0307386,9.52700613 Z M71.2210784,11.2912295 C71.2057894,9.04391718 69.8341071,7.50591375 67.8367298,7.50591375 C65.7505033,7.50591375 64.2899717,9.04391718 64.2899717,11.2912295 C64.2899717,13.5817424 65.8102169,15.0747938 67.9423104,15.0747938 C69.0154247,15.0747938 69.9979589,14.8039137 70.8627967,14.0651233 L70.1020972,12.9033746 C69.5066918,13.3867555 68.7457038,13.6576356 68.0311597,13.6576356 C67.033048,13.6576356 66.124074,13.1900171 65.9005086,11.8937041 L71.190212,11.8937041 C71.2057894,11.6966739 71.2210784,11.5019788 71.2210784,11.2912295 Z M65.9140667,10.6578137 C66.0796494,9.61691029 66.7039019,8.90760144 67.8075942,8.90760144 C68.8054174,8.90760144 69.4469782,9.54101717 69.6105416,10.6578137 L65.9140667,10.6578137 Z M85.7516806,9.11981031 L83.2180347,9.11981031 L83.2180347,12.377085 C83.2180347,13.100113 83.4707358,13.5834938 84.2470128,13.5834938 C84.6494306,13.5834938 85.1559867,13.4471781 85.6166759,13.1760061 L86.0638068,14.5172712 C85.5722512,14.8643363 84.7979935,15.0765452 84.1275856,15.0765452 C82.2934832,15.0765452 81.6539417,14.0805938 81.6539417,12.4062746 L81.6539417,9.11981031 L80.2075452,9.11981031 L80.2075452,7.68718157 L81.6539417,7.68718157 L81.6539417,5.5 L83.2180347,5.5 L83.2180347,7.68718157 L85.7516806,7.68718157 L85.7516806,9.11981031 Z M91.4795723,7.50591375 C91.7916986,7.50591375 92.2405604,7.56633636 92.5832646,7.70265209 L92.1058441,9.18023291 C91.7781404,9.04391718 91.4504367,8.99896509 91.1368681,8.99896509 C90.1234674,8.99896509 89.6169113,9.66186238 89.6169113,10.8528007 L89.6169113,14.8952773 L88.0663766,14.8952773 L88.0663766,7.68718157 L89.6013339,7.68718157 L89.6013339,8.56228771 C90.0040402,7.92887199 90.5855989,7.50591375 91.4795723,7.50591375 Z" id="Fill-9" fill="#110F0E"></path>
            </g>
        </g>
    </g>
</svg>