<?xml version="1.0" encoding="UTF-8"?>
<svg width="120px" height="22px" viewBox="0 0 120 22" version="1.1" xmlns="http://www.w3.org/2000/svg" xmlns:xlink="http://www.w3.org/1999/xlink">
    <!-- Generator: Sketch 52.2 (67145) - http://www.bohemiancoding.com/sketch -->
    <title>Group 33</title>
    <desc>Created with Sketch.</desc>
    <defs>
        <polygon id="path-1" points="0 0.169282667 17.198236 0.169282667 17.198236 21.2666667 0 21.2666667"></polygon>
        <polygon id="path-3" points="0.0791765736 0.169282667 17.2774697 0.169282667 17.2774697 21.2666667 0.0791765736 21.2666667"></polygon>
    </defs>
    <g id="1600-1920" stroke="none" stroke-width="1" fill="none" fill-rule="evenodd">
        <g id="Home-1-1600" transform="translate(-126.000000, -3049.000000)">
            <g id="Group-33" transform="translate(126.000000, 3049.000000)">
                <g id="Group-3">
                    <mask id="mask-2" fill="white">
                        <use xlink:href="#path-1"></use>
                    </mask>
                    <g id="Clip-2"></g>
                    <path d="M13.1677918,10.7179463 C13.1677918,7.36461831 14.7439049,4.37906187 17.198236,2.44691431 C15.3887303,1.02204764 13.1024533,0.169112533 10.6144543,0.169112533 C4.75224928,0.169112533 -5.70641972e-05,4.89201387 -5.70641972e-05,10.7179463 C-5.70641972e-05,16.5438788 4.75224928,21.2667801 10.6144543,21.2667801 C13.1024533,21.2667801 15.3887303,20.4135614 17.198236,18.9889783 C14.7439049,17.0568308 13.1677918,14.0712743 13.1677918,10.7179463" id="Fill-1" fill="#E30E17" mask="url(#mask-2)"></path>
                </g>
                <path d="M12.8244275,11 C12.8244275,14.344801 14.4363974,17.3227656 16.9465649,19.25 C19.4567324,17.3227656 21.0687023,14.344801 21.0687023,11 C21.0687023,7.65519901 19.4567324,4.67723439 16.9465649,2.75 C14.4363974,4.67723439 12.8244275,7.65519901 12.8244275,11" id="Fill-4" fill="#EA600A"></path>
                <path d="M51.4515903,8.12779469 C51.2090497,7.87679011 50.9213135,7.68143552 50.5878202,7.54202074 C50.2546076,7.40318564 49.8899545,7.33333333 49.4935803,7.33333333 C49.2838838,7.33333333 49.0657657,7.35188332 48.8397874,7.38927315 C48.6138092,7.42666298 48.3923225,7.49274732 48.175608,7.5869465 C47.9588935,7.68143552 47.7525656,7.81215499 47.5566242,7.97852522 C47.3609635,8.14547515 47.1905676,8.35532192 47.0462784,8.60893509 C46.8130015,8.21126965 46.4971934,7.89910807 46.0985734,7.67274021 C45.7002342,7.44666219 45.2443477,7.33333333 44.7317561,7.33333333 C44.5591144,7.33333333 44.3808583,7.34956458 44.1967071,7.38173722 C44.0125559,7.4141997 43.8295276,7.47013952 43.6479029,7.54955667 C43.4659974,7.62926367 43.2922328,7.73737533 43.1268897,7.87418152 C42.9612659,8.01098771 42.8110817,8.1837345 42.6757755,8.39271175 L42.6757755,7.51970278 L41.221374,7.51970278 L41.221374,14.6666667 L42.6898114,14.6666667 L42.6898114,10.705374 C42.6898114,10.4019077 42.7364106,10.1323531 42.8296091,9.89584074 C42.9228075,9.6596182 43.0477272,9.46223469 43.2038065,9.30282071 C43.3598859,9.14369656 43.5429142,9.02312162 43.7526108,8.94109587 C43.9625881,8.85878029 44.1863205,8.81791234 44.4240889,8.81791234 C44.9181531,8.81791234 45.3016142,8.97964507 45.5741917,9.30282071 C45.8470499,9.62599634 45.9834789,10.0885867 45.9834789,10.6903021 L45.9834789,14.6666667 L47.4516356,14.6666667 L47.4516356,10.705374 C47.4516356,10.4019077 47.4982348,10.1323531 47.591714,9.89584074 C47.6849124,9.6596182 47.8095514,9.46223469 47.9659114,9.30282071 C48.1219908,9.14369656 48.3050191,9.02312162 48.5147157,8.94109587 C48.7244122,8.85878029 48.9481447,8.81791234 49.1859131,8.81791234 C49.6799773,8.81791234 50.0634384,8.97964507 50.3362966,9.30282071 C50.6088741,9.62599634 50.7453031,10.0885867 50.7453031,10.6903021 L50.7453031,14.6666667 L52.2137405,14.6666667 L52.2137405,10.1755398 C52.2137405,9.75787518 52.1474909,9.37499177 52.0144305,9.02688958 C51.8816507,8.6787874 51.6938502,8.3790891 51.4515903,8.12779469" id="Fill-6" fill="#1D1D1B"></path>
                <path d="M58.8501487,11.8875527 C58.7465082,12.159189 58.6005479,12.3943622 58.4128435,12.5933549 C58.2251391,12.792065 58.0002969,12.9486586 57.7386047,13.0625707 C57.4766247,13.1764827 57.1852798,13.2332974 56.8642823,13.2332974 C56.5283144,13.2332974 56.2283329,13.1739387 55.9640497,13.0552215 C55.6997665,12.9365043 55.4760759,12.7765187 55.2935535,12.5752647 C55.1107433,12.373728 54.9696771,12.1374242 54.8712186,11.8657879 C54.7721844,11.5941515 54.7229552,11.3055556 54.7229552,11 C54.7229552,10.6944444 54.7721844,10.4058485 54.8712186,10.1342121 C54.9696771,9.8625758 55.1107433,9.62627197 55.2935535,9.42501799 C55.4760759,9.223764 55.6997665,9.06377839 55.9640497,8.9447785 C56.2283329,8.8257786 56.5283144,8.76641998 56.8642823,8.76641998 C57.1852798,8.76641998 57.4766247,8.82351732 57.7386047,8.93742933 C58.0002969,9.05162401 58.2251391,9.20793504 58.4128435,9.40664508 C58.6005479,9.60563778 58.7465082,9.84081098 58.8501487,10.1124473 C58.9537891,10.3840837 59.0056094,10.6800288 59.0056094,11 C59.0056094,11.3199712 58.9537891,11.6159163 58.8501487,11.8875527 Z M58.909454,8.35910679 C58.6621564,8.04874602 58.3561291,7.8002878 57.9905086,7.61344948 C57.6248881,7.42689382 57.1878708,7.33333333 56.678881,7.33333333 C56.1799673,7.33333333 55.7156005,7.42406722 55.2860684,7.60610032 C54.8562483,7.78813342 54.4808396,8.04167951 54.159842,8.36645596 C53.8385566,8.6912324 53.5866527,9.07819406 53.4038424,9.52677562 C53.2210322,9.97535718 53.129771,10.4666204 53.129771,11 C53.129771,11.5336622 53.2210322,12.0246428 53.4038424,12.4732244 C53.5866527,12.9218059 53.8385566,13.3087676 54.159842,13.633544 C54.4808396,13.9586031 54.8562483,14.2118666 55.2860684,14.3938997 C55.7156005,14.5756501 56.1799673,14.6666667 56.678881,14.6666667 C57.1878708,14.6666667 57.6248881,14.5745195 57.9905086,14.3902251 C58.3561291,14.2059307 58.6621564,13.9586031 58.909454,13.6482424 L58.909454,14.4846336 L60.4580153,14.4846336 L60.4580153,7.51508377 L58.909454,7.51508377 L58.909454,8.35910679 Z" id="Fill-8" fill="#1D1D1B"></path>
                <path d="M67.2152373,10.9890962 C66.8343038,10.6563164 66.304375,10.4339912 65.6251989,10.3221205 L64.9830826,10.2127988 C64.8401379,10.1884422 64.7060171,10.1606869 64.5807199,10.1289666 C64.4551707,10.0975296 64.3470168,10.0550471 64.2562583,10.0015191 C64.1654998,9.94799109 64.092893,9.88001905 64.0389421,9.79731974 C63.9849912,9.71462043 63.9577637,9.61266237 63.9577637,9.49116235 C63.9577637,9.24334762 64.0603712,9.04283011 64.2660905,8.8896098 C64.4713055,8.73667272 64.76022,8.66020417 65.1320778,8.66020417 C65.3269564,8.66020417 65.5183056,8.67974613 65.7066295,8.71826362 C65.8947012,8.75734755 66.0731929,8.80606084 66.2418525,8.86440351 C66.410512,8.92246296 66.5640451,8.98703639 66.702704,9.05755738 C66.8408586,9.12779516 66.9578362,9.19491755 67.0528805,9.25779168 L67.6370122,8.06969709 C67.3125506,7.83632642 66.933886,7.65535087 66.5012705,7.52648721 C66.068655,7.39790677 65.6080557,7.33333333 65.1194724,7.33333333 C64.7211435,7.33333333 64.3641601,7.38572845 64.0485222,7.49023546 C63.7328843,7.59474247 63.463382,7.74286487 63.2407716,7.93488588 C63.017909,8.12690689 62.8469805,8.36141042 62.7279861,8.63811326 C62.6089916,8.91538254 62.5497465,9.22635461 62.5497465,9.57131271 C62.5497465,10.1351974 62.7279861,10.5906101 63.0849695,10.9381171 C63.4419529,11.2856242 63.9663353,11.5127641 64.6583688,11.61982 L65.3075442,11.7144144 C65.6794019,11.7727571 65.9519295,11.8665019 66.125127,11.9950823 C66.2978202,12.123946 66.384545,12.2879285 66.384545,12.48703 C66.384545,12.749572 66.2652984,12.9571699 66.0275616,13.1103902 C65.7898248,13.2633273 65.4371272,13.3397958 64.969973,13.3397958 C64.7148408,13.3397958 64.486684,13.3205371 64.2855027,13.2817364 C64.0843214,13.2429357 63.9005354,13.1902573 63.7338927,13.1251175 C63.56725,13.0594112 63.4180027,12.9840755 63.2861508,12.8991104 C63.1542989,12.8138622 63.032027,12.7229496 62.9195873,12.625523 L62.2900763,13.7700022 C62.5149557,13.9594742 62.7509278,14.1126946 62.9974884,14.2290967 C63.244049,14.3460652 63.4863237,14.4369778 63.7240606,14.5026841 C63.9620495,14.5683904 64.1869289,14.6120058 64.3989508,14.6338135 C64.6109727,14.6556212 64.7967756,14.6666667 64.9571156,14.6666667 C65.4025885,14.6666667 65.8016738,14.610873 66.1541193,14.4990023 C66.5065648,14.3874149 66.8030425,14.2305128 67.0430483,14.0285792 C67.2835583,13.827212 67.4670922,13.5864777 67.5946583,13.3072259 C67.7224765,13.0276909 67.7862595,12.7204006 67.7862595,12.3850719 C67.7862595,11.7872012 67.5959188,11.3218759 67.2152373,10.9890962" id="Fill-10" fill="#1D1D1B"></path>
                <path d="M77.540299,10.4034689 C77.5772663,10.1513458 77.6415572,9.91957346 77.7337075,9.70871716 C77.825322,9.49757821 77.9439923,9.31583478 78.0886468,9.16320421 C78.2335692,9.010291 78.4055474,8.89270894 78.6056528,8.81017537 C78.8057582,8.72792446 79.0342588,8.68665767 79.2916903,8.68665767 C79.7513702,8.68665767 80.1258647,8.83702704 80.4154417,9.13748314 C80.7050186,9.43822188 80.8887834,9.86021713 80.967004,10.4034689 L77.540299,10.4034689 Z M81.5705349,8.34832659 C81.2967628,8.02582386 80.9683434,7.77624462 80.5844732,7.59902358 C80.2008708,7.42208518 79.7786939,7.33333333 79.3195497,7.33333333 C78.8320104,7.33333333 78.3873316,7.42208518 77.9852456,7.59902358 C77.5828917,7.77624462 77.2370603,8.02582386 76.9474833,8.34832659 C76.6579064,8.67082932 76.4326204,9.05749342 76.2718931,9.50860153 C76.110898,9.95970964 76.0305344,10.4568896 76.0305344,10.9998587 C76.0305344,11.5527205 76.1133089,12.0547055 76.278858,12.5058136 C76.444407,12.9569217 76.6761221,13.3424552 76.9750748,13.6624141 C77.2740275,13.9826556 77.6300384,14.2302563 78.0439111,14.4043682 C78.4575159,14.5790454 78.9126419,14.6666667 79.4090212,14.6666667 C79.9099545,14.6666667 80.3867787,14.5937432 80.8394937,14.4481788 C81.2922088,14.3026145 81.7208148,14.0482302 82.1253118,13.6844607 L81.4084682,12.6005011 C81.1325531,12.8331213 80.827975,13.0140168 80.4947338,13.1423396 C80.1614926,13.2709449 79.8295908,13.3351063 79.4987606,13.3351063 C79.2640988,13.3351063 79.0390806,13.3011884 78.8229025,13.2333526 C78.6067243,13.1652341 78.4114407,13.0600886 78.2370516,12.9170682 C78.0621268,12.7740477 77.9129184,12.5906083 77.7886226,12.3675981 C77.6645948,12.1445879 77.5794093,11.8755059 77.533602,11.5600694 L82.4148887,11.5600694 C82.4239966,11.4730134 82.4312293,11.3808698 82.4355154,11.2836385 C82.4403372,11.1866898 82.4427481,11.0897411 82.4427481,10.9927924 C82.4427481,10.4495407 82.365599,9.95377401 82.2113008,9.50492709 C82.0575384,9.05636282 81.8437712,8.67082932 81.5705349,8.34832659 Z" id="Fill-12" fill="#1D1D1B"></path>
                <path d="M101.903647,11.8875527 C101.799723,12.159189 101.654056,12.3943622 101.466071,12.5933549 C101.278374,12.792065 101.053829,12.9486586 100.792147,13.0625707 C100.530177,13.1764827 100.238843,13.2332974 99.9178586,13.2332974 C99.5819039,13.2332974 99.2819342,13.1739387 99.0176614,13.0552215 C98.7533886,12.9365043 98.5297067,12.7765187 98.3471915,12.5752647 C98.1641005,12.373728 98.0233278,12.1374242 97.9245853,11.8657879 C97.8258429,11.5941515 97.7763277,11.3055556 97.7763277,11 C97.7763277,10.6944444 97.8258429,10.4058485 97.9245853,10.1342121 C98.0233278,9.8625758 98.1641005,9.62627197 98.3471915,9.42501799 C98.5297067,9.223764 98.7533886,9.06377839 99.0176614,8.9447785 C99.2819342,8.8257786 99.5819039,8.76641998 99.9178586,8.76641998 C100.238843,8.76641998 100.530177,8.82351732 100.792147,8.93742933 C101.053829,9.05162401 101.278374,9.20793504 101.466071,9.40664508 C101.654056,9.60563778 101.799723,9.84081098 101.903647,10.1124473 C102.006995,10.3840837 102.059102,10.6800288 102.059102,11 C102.059102,11.3199712 102.006995,11.6159163 101.903647,11.8875527 Z M101.962662,8.35910679 C101.715662,8.04874602 101.409359,7.8002878 101.044041,7.61344948 C100.678435,7.42689382 100.241434,7.33333333 99.7324646,7.33333333 C99.2335705,7.33333333 98.7692219,7.42406722 98.3394188,7.60610032 C97.9099035,7.78813342 97.5342216,8.04167951 97.2132367,8.36645596 C96.8922517,8.6912324 96.6400699,9.07819406 96.4575547,9.52677562 C96.2747516,9.97535718 96.1832061,10.4666204 96.1832061,11 C96.1832061,11.5336622 96.2747516,12.0246428 96.4575547,12.4732244 C96.6400699,12.9218059 96.8922517,13.3087676 97.2132367,13.633544 C97.5342216,13.9586031 97.9099035,14.2118666 98.3394188,14.3938997 C98.7692219,14.5756501 99.2335705,14.6666667 99.7324646,14.6666667 C100.241434,14.6666667 100.678435,14.5745195 101.044041,14.3902251 C101.409359,14.2059307 101.715662,13.9586031 101.962662,13.6482424 L101.962662,14.4846336 L103.51145,14.4846336 L103.51145,7.51508377 L101.962662,7.51508377 L101.962662,8.35910679 Z" id="Fill-14" fill="#1D1D1B"></path>
                <path d="M74.1706436,13.111145 C73.9358983,13.2023501 73.7041348,13.2479526 73.4764374,13.2479526 C73.3276208,13.2479526 73.1891049,13.2238924 73.0611606,13.1757719 C72.9334873,13.128211 72.8215361,13.0523933 72.7266621,12.9491581 C72.630975,12.845923 72.5553469,12.7127524 72.4997779,12.5496465 C72.4439378,12.3862607 72.4157467,12.1895824 72.4157467,11.9590518 L72.4157467,8.95627957 L74.7577778,8.95627957 L74.7577778,7.58820388 L72.4157467,7.58820388 L72.4157467,5.5 L70.9508929,5.5 L70.9508929,7.58820388 L69.6183206,7.58820388 L69.6183206,8.95627957 L70.9508929,8.95627957 L70.9508929,11.9878682 C70.9508929,12.9046747 71.160971,13.5803194 71.5822113,14.0148024 C72.0031805,14.4492853 72.5927543,14.6666667 73.3509327,14.6666667 C73.7740705,14.6666667 74.1541084,14.5992421 74.4915886,14.4649524 C74.7144068,14.3759856 74.9215031,14.274429 75.1145038,14.162521 L74.6162801,12.9024365 C74.4750534,12.9802126 74.3270501,13.0504349 74.1706436,13.111145" id="Fill-16" fill="#1D1D1B"></path>
                <path d="M87.8126289,7.33333333 C87.3688954,7.33333333 86.9680659,7.41304033 86.6098466,7.57216447 C86.2519211,7.73157846 85.9521806,8.11446188 85.7100373,8.45763672 L85.7100373,7.51999262 L84.2748092,7.51999262 L84.2748092,14.6666667 L85.7250243,14.6666667 L85.7250243,10.7352279 C85.7250243,10.4317616 85.7679284,10.1607578 85.8537364,9.92192667 C85.9395445,9.68338537 86.0579714,9.48194406 86.209311,9.31789257 C86.3606505,9.15355124 86.5419642,9.02949818 86.7535457,8.94486384 C86.9654211,8.8602295 87.1972792,8.81791234 87.4497078,8.81791234 C87.6413066,8.81791234 87.8478925,8.84023029 88.0697592,8.88515605 C88.1828966,8.9080537 88.2886873,8.93616853 88.3874254,8.9692107 L88.8549618,7.47767545 C88.7280129,7.43796688 88.5995947,7.40405518 88.4670623,7.38173722 C88.2725249,7.34956458 88.0544783,7.33333333 87.8126289,7.33333333" id="Fill-18" fill="#1D1D1B"></path>
                <path d="M108.881558,7.33333333 C108.437796,7.33333333 108.036941,7.41304033 107.678699,7.57216447 C107.320456,7.73157846 107.020697,8.11446188 106.778832,8.45763672 L106.778832,7.51999262 L105.343511,7.51999262 L105.343511,14.6666667 L106.79382,14.6666667 L106.79382,10.7352279 C106.79382,10.4317616 106.836726,10.1607578 106.92254,9.92192667 C107.00806,9.68338537 107.126494,9.48194406 107.277843,9.31789257 C107.429193,9.15355124 107.610812,9.02949818 107.822407,8.94486384 C108.034296,8.8602295 108.265875,8.81791234 108.51832,8.81791234 C108.709931,8.81791234 108.91653,8.84023029 109.138705,8.88515605 C109.25185,8.9080537 109.357353,8.93616853 109.456098,8.9692107 L109.923664,7.47767545 C109.796707,7.43796688 109.668281,7.40405518 109.536034,7.38173722 C109.341484,7.34956458 109.123423,7.33333333 108.881558,7.33333333" id="Fill-20" fill="#1D1D1B"></path>
                <path d="M115.644042,11.8600157 C115.540401,12.1343435 115.394441,12.371847 115.206737,12.5728114 C115.019032,12.7734904 114.794478,12.9316357 114.532786,13.0466764 C114.270518,13.1617171 113.979173,13.2190947 113.658463,13.2190947 C113.322495,13.2190947 113.022226,13.159148 112.757943,13.0392544 C112.49366,12.9193609 112.269969,12.75779 112.087447,12.5545419 C111.904636,12.3510083 111.76357,12.112363 111.665112,11.8380352 C111.566078,11.5637073 111.516848,11.2722518 111.516848,10.9636686 C111.516848,10.6550854 111.566078,10.3636299 111.665112,10.0893021 C111.76357,9.81497419 111.904636,9.57632893 112.087447,9.37308081 C112.269969,9.16983269 112.49366,9.00826185 112.757943,8.88808284 C113.022226,8.76790382 113.322495,8.70795704 113.658463,8.70795704 C113.979173,8.70795704 114.270518,8.76562013 114.532786,8.88066085 C114.794478,8.99598703 115.019032,9.15384688 115.206737,9.35452585 C115.394441,9.55549028 115.540401,9.79299371 115.644042,10.0673216 C115.747682,10.3416494 115.799502,10.6405269 115.799502,10.9636686 C115.799502,11.2868103 115.747682,11.5856878 115.644042,11.8600157 Z M115.703347,4.58333333 L115.703347,8.29660797 C115.456337,7.98317197 115.150022,7.73225188 114.78469,7.54356227 C114.418781,7.35515811 113.981764,7.26067057 113.473062,7.26067057 C112.974148,7.26067057 112.509494,7.3523035 112.079961,7.53614029 C111.650141,7.71997707 111.274733,7.97603544 110.953735,8.30402995 C110.632738,8.63202446 110.380546,9.02282035 110.198023,9.47584671 C110.014925,9.92887307 109.923664,10.425004 109.923664,10.9636686 C109.923664,11.5026187 110.014925,11.9984642 110.198023,12.4514905 C110.380546,12.9045169 110.632738,13.2953128 110.953735,13.6233073 C111.274733,13.9515873 111.650141,14.2073602 112.079961,14.391197 C112.509494,14.5747483 112.974148,14.6666667 113.473062,14.6666667 C113.981764,14.6666667 114.418781,14.5736064 114.78469,14.387486 C115.150022,14.2013655 115.456337,13.9515873 115.703347,13.6381513 L115.703347,14.4828299 L117.251908,14.4828299 L117.251908,4.58333333 L115.703347,4.58333333 Z" id="Fill-22" fill="#1D1D1B"></path>
                <path d="M90.8061383,9.38855484 C90.9788935,9.19210607 91.1841347,9.03918697 91.421862,8.93008017 C91.6595892,8.82097338 91.9167073,8.76641998 92.1932163,8.76641998 C92.4974266,8.76641998 92.7802314,8.82097338 93.0416306,8.93008017 C93.2944676,9.03551239 93.5133076,9.18277829 93.6989061,9.36989927 L94.351145,8.15248227 C94.1068702,7.93313804 93.8316204,7.75336622 93.5251436,7.61344948 C93.1166758,7.42689382 92.6727001,7.33333333 92.1932163,7.33333333 C91.7134808,7.33333333 91.269505,7.42689382 90.8612891,7.61344948 C90.4528213,7.80000514 90.1007634,8.05722582 89.8046116,8.3845462 C89.5089636,8.71186658 89.2765248,9.09882825 89.1080507,9.54486586 C88.9393248,9.99118614 88.8549618,10.4762309 88.8549618,11 C88.8549618,11.5237691 88.9393248,12.0088139 89.1080507,12.4551341 C89.2765248,12.9011718 89.5089636,13.2878508 89.8046116,13.6151711 C90.1007634,13.9427742 90.4528213,14.1997122 90.8612891,14.3865505 C91.269505,14.5731062 91.7134808,14.6666667 92.1932163,14.6666667 C92.6727001,14.6666667 93.1166758,14.5731062 93.5251436,14.3865505 C93.8316204,14.2463511 94.1068702,14.066862 94.351145,13.8472351 L93.6989061,12.6298181 C93.5133076,12.816939 93.2944676,12.964205 93.0416306,13.0696372 C92.7802314,13.178744 92.4974266,13.2332974 92.1932163,13.2332974 C91.9167073,13.2332974 91.6595892,13.178744 91.421862,13.0696372 C91.1841347,12.9605304 90.9788935,12.8078939 90.8061383,12.6111625 C90.6331313,12.4149964 90.4968915,12.1798232 90.3976706,11.9056429 C90.2981978,11.6317453 90.2485874,11.3298643 90.2485874,11 C90.2485874,10.6701357 90.2981978,10.3682547 90.3976706,10.0943571 C90.4968915,9.82017679 90.6331313,9.5850036 90.8061383,9.38855484" id="Fill-24" fill="#1D1D1B"></path>
                <path d="M34.6168725,17.4166667 L34.6168725,16.7804388 L34.4321951,17.329419 L34.2282381,17.329419 L34.0435607,16.7821384 L34.0435607,17.4166667 L33.8507656,17.4166667 L33.8507656,16.5 L34.126767,16.5 L34.330724,17.0869386 L34.5331589,16.5 L34.8091603,16.5 L34.8091603,17.4166667 L34.6168725,17.4166667 Z M33.23788,17.4166667 L33.23788,16.6977235 L32.9770992,16.6977235 L32.9770992,16.5 L33.6904412,16.5 L33.6904412,16.6977235 L33.4301678,16.6977235 L33.4301678,17.4166667 L33.23788,17.4166667 Z" id="Fill-26" fill="#F59F00"></path>
                <path d="M118.968349,13.5407319 L118.968349,13.6897598 L119.134729,13.6897598 C119.16904,13.6897598 119.19536,13.6844374 119.21369,13.6733087 C119.23249,13.66218 119.24142,13.6433096 119.24142,13.6162136 C119.24142,13.5905692 119.23249,13.5712149 119.21369,13.5591185 C119.19536,13.5470221 119.16904,13.5407319 119.134729,13.5407319 L118.968349,13.5407319 Z M119.138489,13.3428345 C119.24706,13.3428345 119.32931,13.3679951 119.38524,13.4173485 C119.44117,13.4671857 119.46937,13.5334741 119.46937,13.6162136 C119.46937,13.6815343 119.44916,13.7357262 119.40874,13.7783056 C119.36879,13.8213689 119.31051,13.8494326 119.23343,13.8629806 L119.47924,14.1547462 L119.21369,14.1547462 L118.994199,13.8712061 L118.968349,13.8712061 L118.968349,14.1547462 L118.746039,14.1547462 L118.746039,13.3428345 L119.138489,13.3428345 Z M119.087259,14.4116741 C119.17515,14.4116741 119.25881,14.3942553 119.33636,14.3594176 C119.41438,14.3250638 119.48253,14.2776458 119.53987,14.2176476 C119.59721,14.1581332 119.64233,14.087974 119.67523,14.0076537 C119.70813,13.9273335 119.72458,13.841207 119.72458,13.7487904 C119.72458,13.6578253 119.70813,13.5716988 119.67523,13.4908947 C119.64233,13.4100906 119.59721,13.3399314 119.53987,13.2809009 C119.48253,13.2218703 119.41438,13.1749362 119.33636,13.1400985 C119.25881,13.1057447 119.17515,13.087842 119.087259,13.087842 C118.996079,13.087842 118.911009,13.1057447 118.832519,13.1400985 C118.754029,13.1749362 118.685409,13.2218703 118.627599,13.2809009 C118.569319,13.3399314 118.524199,13.4100906 118.490829,13.4908947 C118.457929,13.5716988 118.441479,13.6578253 118.441479,13.7487904 C118.441479,13.841207 118.457929,13.9273335 118.490829,14.0076537 C118.524199,14.087974 118.569319,14.1581332 118.627599,14.2176476 C118.685409,14.2776458 118.754029,14.3250638 118.832519,14.3594176 C118.911009,14.3942553 118.996079,14.4116741 119.087259,14.4116741 Z M119.087259,12.8333333 C119.21369,12.8333333 119.3326,12.8575262 119.44352,12.9059119 C119.55444,12.9538137 119.65126,13.0196182 119.73398,13.1023577 C119.81623,13.1855811 119.88109,13.2823524 119.92903,13.3931556 C119.9765,13.5039588 120,13.6225037 120,13.7487904 C120,13.8736254 119.9765,13.9921703 119.92903,14.1039412 C119.88109,14.2152283 119.81623,14.3124835 119.73398,14.3961907 C119.65126,14.479898 119.55444,14.5457025 119.44352,14.5940881 C119.3326,14.6424738 119.21369,14.6666667 119.087259,14.6666667 C118.958009,14.6666667 118.837219,14.6424738 118.724419,14.5940881 C118.612089,14.5457025 118.514799,14.479898 118.432549,14.3961907 C118.350299,14.3124835 118.285439,14.2152283 118.238439,14.1039412 C118.191439,13.9921703 118.167939,13.8736254 118.167939,13.7487904 C118.167939,13.6225037 118.191439,13.5039588 118.238439,13.3931556 C118.285439,13.2823524 118.350299,13.1855811 118.432549,13.1023577 C118.514799,13.0196182 118.612089,12.9538137 118.724419,12.9059119 C118.837219,12.8575262 118.958009,12.8333333 119.087259,12.8333333 Z" id="Fill-28" fill="#1D1D1B"></path>
                <g id="Group-32" transform="translate(17.404580, 0.000000)">
                    <mask id="mask-4" fill="white">
                        <use xlink:href="#path-3"></use>
                    </mask>
                    <g id="Clip-31"></g>
                    <path d="M6.66295833,0.169084178 C4.17495933,0.169084178 1.88896759,1.02201929 0.0791765736,2.44688596 C2.53322238,4.37903351 4.10962082,7.36458996 4.10962082,10.717918 C4.10962082,14.071246 2.53322238,17.0568024 0.0791765736,18.98895 C1.88896759,20.4138166 4.17495933,21.2667517 6.66295833,21.2667517 C12.5251633,21.2667517 17.2774697,16.5438504 17.2774697,10.717918 C17.2774697,4.89198551 12.5251633,0.169084178 6.66295833,0.169084178" id="Fill-30" fill="#F59F00" mask="url(#mask-4)"></path>
                </g>
            </g>
        </g>
    </g>
</svg>