<?xml version="1.0" encoding="UTF-8"?>
<svg width="60px" height="20px" viewBox="0 0 60 20" version="1.1" xmlns="http://www.w3.org/2000/svg" xmlns:xlink="http://www.w3.org/1999/xlink">
    <!-- Generator: Sketch 52.2 (67145) - http://www.bohemiancoding.com/sketch -->
    <title>Group 13</title>
    <desc>Created with Sketch.</desc>
    <defs>
        <polygon id="path-1" points="0.2050625 0.014516129 14.73725 0.014516129 14.73725 19.9999677 0.2050625 19.9999677"></polygon>
        <polygon id="path-3" points="0 0.0333666667 11.8907053 0.0333666667 11.8907053 10.9143667 0 10.9143667"></polygon>
    </defs>
    <g id="1600-1920" stroke="none" stroke-width="1" fill="none" fill-rule="evenodd">
        <g id="Home-1-1600" transform="translate(-46.000000, -3050.000000)">
            <g id="Group-13" transform="translate(46.000000, 3050.000000)">
                <path d="M16.7746645,1 L11.9483407,13.9748828 L11.4309619,11.3379229 C10.3962042,8.5722225 7.856084,6.03039103 5,4.86221399 L9.01557265,20 L14.2345443,19.996512 L22,1 L16.7746645,1" id="Fill-1" fill="#11419E"></path>
                <polygon id="Fill-3" fill="#11419E" points="22 20 25.0790727 1 30 1 26.9212448 20"></polygon>
                <g id="Group-7" transform="translate(29.000000, 0.000000)">
                    <mask id="mask-2" fill="white">
                        <use xlink:href="#path-1"></use>
                    </mask>
                    <g id="Clip-6"></g>
                    <path d="M10.3975625,0.014483871 C5.60975,0.014483871 2.2394375,2.64222581 2.2100625,6.40512903 C2.1806875,9.18706452 4.616625,10.7402903 6.45225,11.6648065 C8.33975,12.612871 8.9738125,13.2196452 8.9656875,14.0670645 C8.9531875,15.3638387 7.4600625,15.9583548 6.06725,15.9583548 C4.1285,15.9583548 3.0981875,15.6654516 1.5056875,14.942871 L0.88225,14.6348065 L0.2050625,18.9680323 C1.3344375,19.5073871 3.4275625,19.9754516 5.601,19.9999677 C10.690375,19.9999677 13.9969375,17.4041613 14.0350625,13.3873871 C14.05225,11.1802903 12.7619375,9.50803226 9.9669375,8.12674194 C8.27475,7.22835484 7.2356875,6.63383871 7.2475625,5.72480645 C7.2488125,4.92029032 8.125375,4.05932258 10.0219375,4.05932258 C11.6069375,4.03254839 12.75225,4.40964516 13.64725,4.80287097 L14.08225,5.02416129 L14.73725,0.827387097 C13.7800625,0.438677419 12.2725625,0.014483871 10.3975625,0.014483871 Z" id="Fill-5" fill="#11419E" mask="url(#mask-2)"></path>
                </g>
                <path d="M50.329698,13.2525259 C50.7221913,12.1593084 52.2158039,7.9388109 52.2158039,7.9388109 C52.1886196,7.9885458 52.6049374,6.83704025 52.8437932,6.1242789 L53.1632858,7.76458035 C53.1632858,7.76458035 54.0713657,12.3015439 54.2589072,13.2525259 L50.329698,13.2525259 Z M52.5120829,1 C51.3770595,1 50.5270137,1.33674014 50.03067,2.57599453 L43,20 L47.9726,20 C47.9726,20 48.7838547,17.6564407 48.9680364,17.141035 C49.5105018,17.141035 54.3410712,17.1521224 55.0304544,17.1521224 C55.1715687,17.8141985 55.6068239,20 55.6068239,20 L60,20 L56.1694486,1 L52.5120829,1 Z" id="Fill-8" fill="#11419E"></path>
                <g id="Group-12" transform="translate(0.000000, 1.000000)">
                    <mask id="mask-4" fill="white">
                        <use xlink:href="#path-3"></use>
                    </mask>
                    <g id="Clip-11"></g>
                    <path d="M7.95628421,0.0333666667 L0.0656526316,0.0333666667 L-3.15789474e-05,0.448033333 C5.42933684,1.8907 9.87502105,5.01203333 11.8907053,10.9143667 L10.1756526,1.72136667 C9.87975789,0.453366667 9.02049474,0.0777 7.95628421,0.0333666667" id="Fill-10" fill="#11419E" mask="url(#mask-4)"></path>
                </g>
            </g>
        </g>
    </g>
</svg>