<svg xmlns="http://www.w3.org/2000/svg" width="22" height="20" viewBox="0 0 22 20">
  <defs>
    <style>
      .cls-1 {
        fill: #ff0400;
        fill-rule: evenodd;
      }
    </style>
  </defs>
  <path id="Fill-1" class="cls-1" d="M8.643,6.8l5.5,3.124L8.643,13.2V6.8ZM19.012,2.287C18.177,2.162,14.172,2,10.993,2h0.014c-3.179,0-7.184.162-8.019,0.287A2.937,2.937,0,0,0,.335,4.91,44.571,44.571,0,0,0,0,9.868v0.265A44.571,44.571,0,0,0,.335,15.09a2.937,2.937,0,0,0,2.653,2.623C3.823,17.838,7.828,18,11.007,18H10.993c3.179,0,7.184-.162,8.019-0.287a2.937,2.937,0,0,0,2.653-2.623A44.574,44.574,0,0,0,22,10.132V9.868a44.573,44.573,0,0,0-.335-4.957A2.937,2.937,0,0,0,19.012,2.287Z"/>
</svg>
