<svg id="icon_free_delivery" xmlns="http://www.w3.org/2000/svg" width="70" height="70" viewBox="0 0 70 70">
  <defs>
    <style>
      .cls-1 {
        fill: #fff;
        fill-rule: evenodd;
      }
    </style>
  </defs>
  <g id="_1600-1920" data-name="1600-1920">
    <g id="Home-1-1600">
      <g id="Group">
        <g id="Group-12">
          <path id="Fill-1" class="cls-1" d="M63.8,46.568a5.068,5.068,0,0,0-9.663,0H52.388V27.288H59.04L66.79,37.3v9.269H63.8Zm-7.664,1.446a2.833,2.833,0,1,1,2.833,2.795A2.818,2.818,0,0,1,56.134,48.013Zm-5.963-1.446H36.451a5.068,5.068,0,0,0-9.663,0H22.219V22.015H50.171V46.568ZM28.787,48.013a2.833,2.833,0,1,1,2.833,2.795A2.818,2.818,0,0,1,28.787,48.013Zm5.778-31.825v3.639H23.477l5.368-3.639h5.719Zm8.979,0,5.368,3.639H36.782V16.188h6.761ZM60.47,25.531a1.113,1.113,0,0,0-.881-0.43h-7.2v-4.18a1.061,1.061,0,0,0-.082-0.408,1.085,1.085,0,0,0-.4-1.309l-7.391-5.011A1.122,1.122,0,0,0,43.888,14H28.5a1.122,1.122,0,0,0-.628.192L20.482,19.2a1.085,1.085,0,0,0-.4,1.309,1.076,1.076,0,0,0-.082.408V47.662a1.1,1.1,0,0,0,1.109,1.094h5.521a5.054,5.054,0,0,0,9.976,0H53.979a5.054,5.054,0,0,0,9.976,0H67.9a1.1,1.1,0,0,0,1.109-1.094V36.928a1.082,1.082,0,0,0-.228-0.664Z"/>
          <path id="Fill-3" class="cls-1" d="M14.958,26.178H7.98a1.25,1.25,0,1,0,0,2.5h6.978a1.25,1.25,0,1,0,0-2.5"/>
          <g id="Group-7">
            <path id="Fill-5" class="cls-1" d="M15.958,33.71H2.26a1.25,1.25,0,1,0,0,2.5h13.7a1.25,1.25,0,1,0,0-2.5"/>
          </g>
          <path id="Fill-8" class="cls-1" d="M14.958,41.692H7.98a1.25,1.25,0,1,0,0,2.5h6.978a1.25,1.25,0,1,0,0-2.5"/>
          <path id="Fill-10" class="cls-1" d="M36.214,41.148a1.268,1.268,0,0,0,1.782,0l6.819-6.765a1.242,1.242,0,0,0,0-1.767L38,25.851a1.266,1.266,0,0,0-1.782,0,1.242,1.242,0,0,0,0,1.767l5.929,5.88-5.929,5.882a1.242,1.242,0,0,0,0,1.767"/>
        </g>
      </g>
    </g>
  </g>
</svg>
