<svg id="icon_buy_online" xmlns="http://www.w3.org/2000/svg" width="70" height="70" viewBox="0 0 70 70">
  <defs>
    <style>
      .cls-1 {
        fill: #fff;
        fill-rule: evenodd;
      }
    </style>
  </defs>
  <g id="_1600-1920" data-name="1600-1920">
    <g id="Home-1-1600">
      <g id="Group-15">
        <g id="Group-6">
          <g id="Group-3">
            <path id="Fill-1" class="cls-1" d="M19.241,63.537H11.389a2.942,2.942,0,0,1-2.934-2.943V43.474a2.942,2.942,0,0,1,2.934-2.943h7.852a2.942,2.942,0,0,1,2.934,2.943v17.12A2.942,2.942,0,0,1,19.241,63.537ZM35.328,3.643a1.233,1.233,0,0,0-.214-0.138C35.1,3.5,35.076,3.491,35.058,3.483a1.312,1.312,0,0,0-.173-0.067A0.616,0.616,0,0,0,34.816,3.4a1.174,1.174,0,0,0-.171-0.03c-0.016,0-.03,0-0.045,0a1.2,1.2,0,0,0-.2,0,0.114,0.114,0,0,0-.02.005,1.206,1.206,0,0,0-.216.045l-0.022.009a1.277,1.277,0,0,0-.2.086,1.258,1.258,0,0,0-.206.14L5.45,27.392a1.26,1.26,0,1,0,1.615,1.935l7-5.874v8.518a1.258,1.258,0,1,0,2.515,0V21.343L34.564,6.256l17.73,14.119a1.26,1.26,0,0,0-.111.512V50.772H24.691v-7.3a5.464,5.464,0,0,0-5.449-5.465H11.389A5.464,5.464,0,0,0,5.94,43.474v17.12a5.464,5.464,0,0,0,5.449,5.465h7.852a5.464,5.464,0,0,0,5.449-5.465v-7.3H53.44A1.26,1.26,0,0,0,54.7,52.033V22.29l8.86,7.057a1.256,1.256,0,0,0,1.767-.2,1.265,1.265,0,0,0-.2-1.772Z"/>
          </g>
          <path id="Fill-4" class="cls-1" d="M15.477,44.909a1.26,1.26,0,0,0-1.258,1.261v2.181a1.258,1.258,0,1,0,2.515,0V46.17a1.26,1.26,0,0,0-1.258-1.261"/>
        </g>
      </g>
    </g>
  </g>
</svg>
